<?xml version="1.0" encoding="UTF-8" standalone="no"?>
<!-- Created with Inkscape (http://www.inkscape.org/) -->

<svg
   version="1.1"
   id="svg2"
   xml:space="preserve"
   width="480.00076"
   height="268.3905"
   viewBox="0 0 480.00077 268.3905"
   sodipodi:docname="000e58604e08adc324bbfbb434a11bfa.eps"
   xmlns:inkscape="http://www.inkscape.org/namespaces/inkscape"
   xmlns:sodipodi="http://sodipodi.sourceforge.net/DTD/sodipodi-0.dtd"
   xmlns="http://www.w3.org/2000/svg"
   xmlns:svg="http://www.w3.org/2000/svg"><defs
     id="defs6" /><sodipodi:namedview
     id="namedview4"
     pagecolor="#ffffff"
     bordercolor="#666666"
     borderopacity="1.0"
     inkscape:pageshadow="2"
     inkscape:pageopacity="0.0"
     inkscape:pagecheckerboard="0" /><g
     id="g8"
     inkscape:groupmode="layer"
     inkscape:label="ink_ext_XXXXXX"
     transform="matrix(1.3333333,0,0,-1.3333333,-11.503226,274.81599)"><g
       id="g10"
       transform="scale(0.1)"><path
         d="M 1039.93,695.98 C 1037.85,658.98 1028.52,583 978.961,504.172 925.797,419.602 856.23,379.301 837.109,368.832 757.059,324.93 681.191,320.922 641.047,322.129 610.754,323.031 507.063,329.738 410.691,406.68 311.965,485.488 283.539,588 273.078,627.98 c -8.769,33.52 -16.75,80.5 -13.371,135.872 6.441,105.687 50.5,180.597 72.473,216.988 22.191,36.75 44.929,64.27 60.261,81.3 0.895,0.99 6.875,7.63 13.938,14.89 40.215,41.42 511.777,511.61 749.351,748.42 0,78.56 0,157.11 0,235.67 C 1030.96,1939.32 926.945,1837 847.535,1758.61 709.621,1622.45 615.324,1528.14 593.418,1506.2 c -28.145,-28.18 -39.23,-39.47 -72.582,-72.56 -95.941,-95.23 -177.059,-175.29 -236.137,-233.47 -53.906,-53.1 -99.066,-114.6 -131.926,-182.76 -19.578,-40.621 -37.289,-87.719 -49.515,-141.101 -33.3166,-145.489 -8.4025,-261.207 -2.301,-287.59 21.75,-94.059 61.348,-163.797 89.586,-205.77 -23.727,-17.867 -47.457,-35.758 -71.18,-53.64 18.621,-28.719 43.075,-61.688 74.774,-95.469 28.168,-30.02 55.968,-54.18 80.812,-73.328 l 60.969,69.879 c 25.055,-16.61 56.91,-34.801 95.48,-50.621 46.832,-19.211 89.5,-29.161 123.375,-34.508 V 55.5313 c 24.618,-4.0625 53.829,-7.1524 86.707,-7.3321 33.028,-0.1797 62.391,2.6524 87.137,6.4805 v 93.6213 c 29.457,2.98 68.192,9.828 111.297,25.871 47.602,17.699 84.149,40.508 109.43,59.09 23.582,-23.973 47.16,-47.93 70.746,-71.903 25.07,18.731 53.77,43.09 82.82,74.2 30.68,32.871 53.94,64.902 71.32,92.39 -24.15,16.66 -48.31,33.321 -72.47,49.973 33.12,52.199 53.64,98.078 66.43,131.418 6.09,15.859 12.2,31.91 17.69,53.5 13.95,54.832 12.99,102.019 9.92,133.289 -51.95,-0.047 -103.91,-0.098 -155.87,-0.149"
         style="fill:#ffffff;fill-opacity:1;fill-rule:nonzero;stroke:none"
         id="path12" /><path
         d="m 351.16,656.59 c 268.203,267.898 536.406,535.8 804.6,803.71 -0.03,80.02 -0.07,160.05 -0.1,240.08 -377.445,-367.4 -647.285,-639.49 -697.328,-691.36 -0.004,0 -64.144,-66.461 -91.535,-141.2 -5.613,-15.32 -10.574,-31.871 -14.484,-49.609 -15.352,-69.621 -8.02,-127.992 -1.153,-161.621"
         style="fill:#ffffff;fill-opacity:1;fill-rule:nonzero;stroke:none"
         id="path14" /><path
         d="m 1155.73,1330.95 c 0,-83.73 0,-167.44 0,-251.16 C 943.688,869.012 731.652,658.219 519.617,447.441 c -19.98,7.309 -51.008,21.489 -81.746,48.911 -26.336,23.507 -42.734,48.046 -52.441,65.41 256.765,256.386 513.531,512.788 770.3,769.188"
         style="fill:#ffffff;fill-opacity:1;fill-rule:nonzero;stroke:none"
         id="path16" /><path
         d="m 1540.09,917.77 h 63.4 c 74.96,0 108.09,55.75 108.09,131.9 0,63.86 -31.03,122.49 -107.59,122.49 h -63.9 z m -84.54,322.69 h 155.03 c 113.88,0 188.31,-75 188.31,-190.59 0,-114.03 -72.22,-200.39 -191.87,-200.39 h -151.47 v 390.98"
         style="fill:#ffffff;fill-opacity:1;fill-rule:nonzero;stroke:none"
         id="path18" /><path
         d="m 2018.79,1028.78 c -0.57,34.17 -14.22,62.93 -53.82,62.93 -38.95,0 -54.61,-26.85 -57.85,-62.93 z m -113.37,-49.921 c 0.06,-36.711 18.45,-72.589 58.91,-72.589 33.84,0 43.51,13.582 51.21,31.339 h 81.35 c -10.42,-35.929 -42.47,-94.937 -134.69,-94.937 -96.69,0 -138.63,72.297 -138.63,149.308 0,92.08 47.25,157.84 141.53,157.84 100.82,0 135.09,-72.93 135.09,-146.21 0,-9.93 0,-16.38 -1.06,-24.751 h -193.71"
         style="fill:#ffffff;fill-opacity:1;fill-rule:nonzero;stroke:none"
         id="path20" /><path
         d="m 2152.76,849.48 v 232.43 h -42.78 v 61.1 h 42.78 v 25.79 c 0,60.62 30.09,100.31 93.6,100.31 13.5,0 30.47,-1.2 37.78,-3.47 v -64.17 c -4.51,0.77 -10.64,1.41 -17.15,1.41 -23.98,0 -32.95,-8.84 -32.95,-40.21 v -19.66 h 51.33 v -61.1 h -51.33 V 849.48 h -81.28"
         style="fill:#ffffff;fill-opacity:1;fill-rule:nonzero;stroke:none"
         id="path22" /><path
         d="m 2496.78,1028.78 c -0.56,34.17 -14.22,62.93 -53.81,62.93 -38.95,0 -54.62,-26.85 -57.87,-62.93 z M 2383.4,978.859 c 0.07,-36.711 18.46,-72.589 58.93,-72.589 33.84,0 43.5,13.582 51.21,31.339 h 81.34 c -10.41,-35.929 -42.46,-94.937 -134.69,-94.937 -96.68,0 -138.62,72.297 -138.62,149.308 0,92.08 47.24,157.84 141.53,157.84 100.81,0 135.09,-72.93 135.09,-146.21 0,-9.93 0,-16.38 -1.06,-24.751 H 2383.4"
         style="fill:#ffffff;fill-opacity:1;fill-rule:nonzero;stroke:none"
         id="path24" /><path
         d="m 2612.1,1069.06 c 0,24.95 0,52.26 -0.57,73.95 h 78.71 c 1.64,-7.57 2.71,-27.96 3.14,-37.4 9.98,18.44 33.73,44.21 85.15,44.21 58.96,0 97.27,-39.84 97.27,-113.61 V 849.48 h -81.28 v 177.7 c 0,33 -10.99,56.91 -46.86,56.91 -34.53,0 -54.28,-19.2 -54.28,-71.04 V 849.48 h -81.28 v 219.58"
         style="fill:#ffffff;fill-opacity:1;fill-rule:nonzero;stroke:none"
         id="path26" /><path
         d="m 2974.22,937.719 c 6.14,-23.379 25.24,-36.508 55.56,-36.508 30.01,0 40.94,10.769 40.94,28.539 0,18.852 -12.62,26.238 -54.67,36.57 -95.61,23.559 -111.27,53.17 -111.27,94.59 0,43.13 30.49,88.91 119.03,88.91 89.05,0 119.17,-48.62 121.71,-88.39 h -77.27 c -2.61,10.84 -9.85,31.35 -48.07,31.35 -26.86,0 -35.55,-11.91 -35.55,-25.11 0,-14.6 9.12,-21.65 56.77,-32.77 97.93,-22.77 111.79,-56.349 111.79,-99.388 0,-48.602 -36.97,-92.84 -126.47,-92.84 -89.12,0 -125.91,43.008 -132.35,95.047 h 79.85"
         style="fill:#ffffff;fill-opacity:1;fill-rule:nonzero;stroke:none"
         id="path28" /><path
         d="m 3363.62,1028.78 c -0.57,34.17 -14.22,62.93 -53.82,62.93 -38.94,0 -54.61,-26.85 -57.85,-62.93 z m -113.37,-49.921 c 0.07,-36.711 18.46,-72.589 58.92,-72.589 33.83,0 43.5,13.582 51.21,31.339 h 81.34 c -10.42,-35.929 -42.47,-94.937 -134.68,-94.937 -96.69,0 -138.64,72.297 -138.64,149.308 0,92.08 47.26,157.84 141.54,157.84 100.82,0 135.09,-72.93 135.09,-146.21 0,-9.93 0,-16.38 -1.07,-24.751 h -193.71"
         style="fill:#ffffff;fill-opacity:1;fill-rule:nonzero;stroke:none"
         id="path30" /><path
         d="m 1658.36,529.969 c -27.76,82.511 -45.45,135.222 -54.88,170.363 h -0.57 c -9.65,-38.543 -29.17,-99.871 -51.42,-170.363 z m -124.64,-69.297 -30.5,-90.313 h -83.11 l 132.77,390.993 h 106.18 l 138.51,-390.993 h -88.88 l -32.13,90.313 h -142.84"
         style="fill:#ffffff;fill-opacity:1;fill-rule:nonzero;stroke:none"
         id="path32" /><path
         d="m 2054.7,465.199 c -10.11,-48.89 -44.5,-101.648 -131.98,-101.648 -91.36,0 -138.34,63.219 -138.34,151.449 0,86.68 52.88,155.699 142.24,155.699 98.98,0 126.47,-71.008 128.08,-104.219 h -79.34 c -5.01,23.911 -18.58,40.629 -50.31,40.629 -37.14,0 -58.19,-32.57 -58.19,-89.48 0,-62.5 22.28,-90.969 57.85,-90.969 27.92,0 42.89,16.481 50.15,38.539 h 79.84"
         style="fill:#ffffff;fill-opacity:1;fill-rule:nonzero;stroke:none"
         id="path34" /><path
         d="m 2251.76,503.988 c -6.77,0 -22.38,0 -33.1,0 -48.98,0 -67.14,-14.949 -67.14,-43.25 0,-21.25 13.05,-39.148 42.26,-39.148 51.64,0 57.98,35.91 57.98,74.691 z m 79.21,-57.789 c 0,-27.937 2.27,-68.758 3.98,-75.84 h -77.65 c -2.26,5.813 -3.96,21.282 -4.1,28.692 -10.65,-16.481 -30.61,-35.5 -82.53,-35.5 -70.77,0 -100.62,46.539 -100.62,92.058 0,66.879 53.69,97.731 139.75,97.731 14.34,0 32.05,0 41.9,0 v 17.941 c 0,20.867 -7.5,41.379 -45.2,41.379 -34.32,0 -41.83,-14.578 -45.57,-35.828 h -77.27 c 4.39,52.156 36.66,94.367 125.91,93.867 78.62,-0.5 121.4,-31.211 121.4,-101.078 V 446.199"
         style="fill:#ffffff;fill-opacity:1;fill-rule:nonzero;stroke:none"
         id="path36" /><path
         d="m 2446.03,516.852 c 0,-57.211 22.29,-88.204 62.07,-88.204 55.89,0 62.33,46.622 62.33,88.793 0,50.188 -7.09,88.161 -60.22,88.161 -42.66,0 -64.18,-33.313 -64.18,-88.75 z m 202.54,267.468 v -333.3 c 0,-26.719 0,-53.801 0.57,-80.661 H 2571 c -1.64,8.813 -3.2,23.973 -3.7,30.661 -14.18,-23.098 -39.45,-37.469 -83.29,-37.469 -74.22,0 -121.46,59.621 -121.46,151.168 0,90.34 50.21,155.98 133.33,155.98 42.23,0 64.91,-14.89 71.42,-28.058 V 784.32 h 81.27"
         style="fill:#ffffff;fill-opacity:1;fill-rule:nonzero;stroke:none"
         id="path38" /><path
         d="m 2875.07,549.672 c -0.57,34.18 -14.21,62.93 -53.81,62.93 -38.95,0 -54.62,-26.852 -57.87,-62.93 z M 2761.7,499.75 c 0.06,-36.719 18.45,-72.59 58.92,-72.59 33.84,0 43.5,13.57 51.21,31.328 h 81.34 c -10.41,-35.918 -42.46,-94.937 -134.69,-94.937 -96.68,0 -138.62,72.301 -138.62,149.32 0,92.07 47.25,157.828 141.52,157.828 100.82,0 135.1,-72.918 135.1,-146.199 0,-9.941 0,-16.379 -1.06,-24.75 H 2761.7"
         style="fill:#ffffff;fill-opacity:1;fill-rule:nonzero;stroke:none"
         id="path40" /><path
         d="m 2980.1,588.25 c 0,25.379 0,50.539 -0.56,75.641 h 77.71 c 1.07,-7.129 2.7,-23.532 3.14,-34.993 14.9,21.872 38.49,41.801 81.57,41.801 42.19,0 65.39,-21.847 75.74,-44.66 17.17,24 42.53,44.66 90.44,44.66 51.15,0 93.03,-31.437 93.03,-107.769 V 370.359 h -79.28 v 182.672 c 0,26.52 -9.62,52.449 -42.89,52.449 -34.54,0 -48.01,-22.281 -48.01,-67.3 V 370.359 h -79.71 v 179.61 c 0,30.422 -7.48,55 -42.18,55 -33.05,0 -48.71,-20.309 -48.71,-70.668 V 370.359 H 2980.1 V 588.25"
         style="fill:#ffffff;fill-opacity:1;fill-rule:nonzero;stroke:none"
         id="path42" /><path
         d="m 3484.79,663.891 c 30.32,-101.282 56.77,-191.661 61.43,-218.789 h 0.55 c 6.36,29.597 23.55,95.386 58.6,218.789 h 80.91 l -98.64,-301.993 c -28.05,-84.429 -51.46,-109.636 -121.98,-109.636 -7.21,0 -24,0.578 -38.07,2.207 v 65.293 c 5.51,-0.633 14.46,-1.203 21.03,-1.203 29.85,0 44.89,10.371 55.89,42.82 l -106.82,302.512 h 87.1"
         style="fill:#ffffff;fill-opacity:1;fill-rule:nonzero;stroke:none"
         id="path44" /></g></g></svg>
